<svg xmlns="http://www.w3.org/2000/svg" viewBox="0 0 64 64">
  <rect width="64" height="64" rx="14" fill="#000"/>
  <g fill="#00BFA8" transform="translate(6 24.1) scale(0.838) translate(-9.1 -27.44)">
    <polygon points="30.75 27.44 29.14 31.21 14.05 31.21 15.66 27.44 30.75 27.44"/>
    <path d="M70.52,31.48l-6.32,14.82h-3.77l6.43-15.09h-30.17l-1.61,3.77h6.93c2.08,0,3.48,2.12,2.67,4.04l-2.35,5.52c-.46,1.07-1.51,1.76-2.67,1.76H12.01c-2.08,0-3.48-2.12-2.67-4.04l2.35-5.52c.46-1.07,1.51-1.76,2.67-1.76h13.17l-1.61,3.77h-11.32l-1.61,3.77h26.4l1.61-3.77h-6.93c-2.08,0-3.48-2.12-2.67-4.04l2.35-5.51c.46-1.07,1.51-1.76,2.67-1.76h31.41c2.08,0,3.48,2.12,2.67,4.04"/>
    <polygon points="53.94 34.99 49.11 46.3 45.34 46.3 50.16 34.99 53.94 34.99"/>
    <polygon points="61.48 34.99 56.65 46.3 52.88 46.3 57.71 34.99 61.48 34.99"/>
  </g>
</svg>
