<svg width="38" height="28" viewBox="0 0 38 28" fill="none" xmlns="http://www.w3.org/2000/svg">
<path d="M11.796 5.83172C12.6347 5.02191 12.1727 3.5956 11.0154 3.43159L8.76789 3.10409C8.60194 3.08162 8.45837 2.97842 8.38211 2.82599L7.37722 0.784779C6.85099 -0.267833 5.36193 -0.255334 4.8515 0.784779L3.84213 2.82599C3.77035 2.97851 3.62678 3.08171 3.46083 3.10409L1.20875 3.43159C0.0700768 3.59425 -0.419577 5.00358 0.428154 5.83172L2.05664 7.41985C2.17775 7.54095 2.23155 7.70698 2.20469 7.87293L1.81891 10.116C1.624 11.2755 2.838 12.1409 3.86012 11.6009L5.87439 10.5422C6.02243 10.4615 6.20189 10.4615 6.34994 10.5422L8.36421 11.6009C9.39706 12.1398 10.6084 11.2666 10.4054 10.116L10.0196 7.87293C9.9927 7.70698 10.0466 7.54095 10.1677 7.41985L11.796 5.83172ZM9.544 6.77826C9.21202 7.10129 9.0595 7.56781 9.13576 8.02537L9.52154 10.2684C9.59772 10.6776 9.1627 11.0024 8.78132 10.8068L6.76705 9.74811C6.56065 9.64043 6.33634 9.58664 6.11204 9.58664C5.88773 9.58664 5.66343 9.64043 5.45703 9.74811L3.44276 10.8068C3.06272 11.0017 2.63506 10.6832 2.70254 10.2684L3.08831 8.02537C3.16457 7.56781 3.01205 7.10121 2.68455 6.77826L1.05158 5.19014C0.751437 4.89 0.920426 4.37763 1.33416 4.31986L3.58624 3.99236C4.04837 3.92505 4.44309 3.63799 4.6495 3.22072L5.65439 1.18398C5.82938 0.825062 6.39461 0.825062 6.5696 1.18398L7.57897 3.22072C7.78081 3.63791 8.1801 3.92505 8.63766 3.99236L10.8898 4.31986C11.3125 4.37754 11.474 4.89794 11.1724 5.19014L9.544 6.77826Z" fill="#24B9A5"/>
<path d="M37.1496 1.54614H15.1517C14.9038 1.54614 14.7031 1.74697 14.7031 1.99475C14.7031 2.24253 14.9038 2.44336 15.1517 2.44336H37.1496C37.3975 2.44336 37.5982 2.24253 37.5982 1.99475C37.5982 1.74705 37.3975 1.54614 37.1496 1.54614Z" fill="#24B9A5"/>
<path d="M15.1517 6.33106H30.6587C30.9066 6.33106 31.1073 6.13023 31.1073 5.88245C31.1073 5.63466 30.9066 5.43384 30.6587 5.43384H15.1517C14.9038 5.43384 14.7031 5.63466 14.7031 5.88245C14.7031 6.13023 14.9038 6.33106 15.1517 6.33106Z" fill="#24B9A5"/>
<path d="M15.1517 10.2188H23.6263C23.8743 10.2188 24.0749 10.0178 24.0749 9.77014C24.0749 9.52236 23.8743 9.32153 23.6263 9.32153H15.1517C14.9038 9.32153 14.7031 9.52236 14.7031 9.77014C14.7031 10.0178 14.9038 10.2188 15.1517 10.2188Z" fill="#24B9A5"/>
<path d="M11.7963 21.484L10.1678 23.0721C10.0467 23.1932 9.9929 23.3592 10.0198 23.5252L10.4055 25.7683C10.6091 26.9215 9.39473 27.7907 8.36433 27.2532L6.35006 26.1944C6.20202 26.1137 6.02255 26.1137 5.87451 26.1944L3.86033 27.2532C2.84149 27.7914 1.62386 26.9302 1.81912 25.7683L2.20489 23.5252C2.23183 23.3592 2.17795 23.1932 2.05685 23.0721L0.428359 21.484C-0.420555 20.6549 0.0716326 19.2464 1.20895 19.084L3.46104 18.7565C3.62698 18.734 3.77055 18.6308 3.84234 18.4784L4.85171 16.4371C5.36248 15.3965 6.85145 15.3853 7.37742 16.4371L8.38232 18.4784C8.45858 18.6309 8.60215 18.7341 8.76809 18.7565L11.0156 19.084C12.1746 19.2481 12.6338 20.6754 11.7963 21.484Z" fill="#24B9A5"/>
<path d="M24.0747 25.4225C24.0747 25.6693 23.8729 25.8711 23.6261 25.8711H15.1517C14.905 25.8711 14.7031 25.6692 14.7031 25.4225C14.7031 25.1757 14.905 24.9739 15.1517 24.9739H23.626C23.8728 24.9739 24.0747 25.1757 24.0747 25.4225Z" fill="#24B9A5"/>
<path d="M37.5982 17.6471C37.5982 17.3993 37.3975 17.1985 37.1496 17.1985H15.1517C14.9038 17.1985 14.7031 17.3993 14.7031 17.6471C14.7031 17.8949 14.9038 18.0957 15.1517 18.0957H37.1496C37.3975 18.0957 37.5982 17.8949 37.5982 17.6471Z" fill="#24B9A5"/>
<path d="M31.1074 21.5343C31.1074 21.2865 30.9067 21.0857 30.6588 21.0857H15.1517C14.9038 21.0857 14.7031 21.2866 14.7031 21.5343C14.7031 21.7821 14.9038 21.9829 15.1517 21.9829H30.6587C30.9067 21.9829 31.1074 21.782 31.1074 21.5343Z" fill="#24B9A5"/>
</svg>
